<?xml version="1.0"?>
<svg xmlns="http://www.w3.org/2000/svg" xmlns:xlink="http://www.w3.org/1999/xlink" version="1.1" viewBox="0 0 224 224" width="512px" height="512px"><g fill="none" fill-rule="nonzero" stroke="none" stroke-width="1" stroke-linecap="butt" stroke-linejoin="miter" stroke-miterlimit="10" stroke-dasharray="" stroke-dashoffset="0" font-family="none" font-weight="none" font-size="none" text-anchor="none" style="mix-blend-mode: normal"><path d="M0,224v-224h224v224z" fill="none"/><g fill="#ffffff"><g id="surface1"><path d="M133,21c-38.58203,0 -70,31.41797 -70,70c0,16.76172 5.87891,32.12891 15.75,44.1875l-55.78125,55.78125l10.0625,10.0625l55.78125,-55.78125c12.05859,9.87109 27.42578,15.75 44.1875,15.75c38.58203,0 70,-31.41797 70,-70c0,-38.58203 -31.41797,-70 -70,-70zM133,35c31.00782,0 56,24.99219 56,56c0,31.00782 -24.99218,56 -56,56c-31.00781,0 -56,-24.99218 -56,-56c0,-31.00781 24.99219,-56 56,-56z"/></g></g></g></svg>
